<mxfile host="app.diagrams.net" modified="2023-03-28T14:00:53.604Z" agent="5.0 (Windows NT 6.1) AppleWebKit/537.36 (KHTML, like Gecko) Chrome/109.0.0.0 Safari/537.36 OPR/95.0.0.0 (Edition Yx)" etag="4BD15Zgyr0bb2isaItKa" version="21.0.10" type="github">
  <diagram name="Страница 1" id="a4F6twZ2-VCPZVd90Dkl">
    <mxGraphModel dx="1790" dy="1092" grid="1" gridSize="10" guides="1" tooltips="1" connect="1" arrows="1" fold="1" page="1" pageScale="1" pageWidth="827" pageHeight="1169" math="0" shadow="0">
      <root>
        <mxCell id="0" />
        <mxCell id="1" parent="0" />
        <mxCell id="U3F9iakPl_cf1ObfdUDb-14" value="Visits" style="shape=table;startSize=30;container=1;collapsible=1;childLayout=tableLayout;fixedRows=1;rowLines=0;fontStyle=1;align=center;resizeLast=1;" parent="1" vertex="1">
          <mxGeometry x="603.99" y="190" width="180" height="240" as="geometry" />
        </mxCell>
        <mxCell id="U3F9iakPl_cf1ObfdUDb-15" value="" style="shape=tableRow;horizontal=0;startSize=0;swimlaneHead=0;swimlaneBody=0;fillColor=none;collapsible=0;dropTarget=0;points=[[0,0.5],[1,0.5]];portConstraint=eastwest;top=0;left=0;right=0;bottom=1;" parent="U3F9iakPl_cf1ObfdUDb-14" vertex="1">
          <mxGeometry y="30" width="180" height="30" as="geometry" />
        </mxCell>
        <mxCell id="U3F9iakPl_cf1ObfdUDb-16" value="PK" style="shape=partialRectangle;connectable=0;fillColor=none;top=0;left=0;bottom=0;right=0;fontStyle=1;overflow=hidden;" parent="U3F9iakPl_cf1ObfdUDb-15" vertex="1">
          <mxGeometry width="40" height="30" as="geometry">
            <mxRectangle width="40" height="30" as="alternateBounds" />
          </mxGeometry>
        </mxCell>
        <mxCell id="U3F9iakPl_cf1ObfdUDb-17" value="id-visit" style="shape=partialRectangle;connectable=0;fillColor=none;top=0;left=0;bottom=0;right=0;align=left;spacingLeft=6;fontStyle=5;overflow=hidden;" parent="U3F9iakPl_cf1ObfdUDb-15" vertex="1">
          <mxGeometry x="40" width="140" height="30" as="geometry">
            <mxRectangle width="140" height="30" as="alternateBounds" />
          </mxGeometry>
        </mxCell>
        <mxCell id="7-1CVHjXULgkSqzOs4-w-140" value="" style="shape=tableRow;horizontal=0;startSize=0;swimlaneHead=0;swimlaneBody=0;fillColor=none;collapsible=0;dropTarget=0;points=[[0,0.5],[1,0.5]];portConstraint=eastwest;top=0;left=0;right=0;bottom=0;" parent="U3F9iakPl_cf1ObfdUDb-14" vertex="1">
          <mxGeometry y="60" width="180" height="30" as="geometry" />
        </mxCell>
        <mxCell id="7-1CVHjXULgkSqzOs4-w-141" value="" style="shape=partialRectangle;connectable=0;fillColor=none;top=0;left=0;bottom=0;right=0;editable=1;overflow=hidden;" parent="7-1CVHjXULgkSqzOs4-w-140" vertex="1">
          <mxGeometry width="40" height="30" as="geometry">
            <mxRectangle width="40" height="30" as="alternateBounds" />
          </mxGeometry>
        </mxCell>
        <mxCell id="7-1CVHjXULgkSqzOs4-w-142" value="Fio_patient" style="shape=partialRectangle;connectable=0;fillColor=none;top=0;left=0;bottom=0;right=0;align=left;spacingLeft=6;overflow=hidden;" parent="7-1CVHjXULgkSqzOs4-w-140" vertex="1">
          <mxGeometry x="40" width="140" height="30" as="geometry">
            <mxRectangle width="140" height="30" as="alternateBounds" />
          </mxGeometry>
        </mxCell>
        <mxCell id="U3F9iakPl_cf1ObfdUDb-24" value="" style="shape=tableRow;horizontal=0;startSize=0;swimlaneHead=0;swimlaneBody=0;fillColor=none;collapsible=0;dropTarget=0;points=[[0,0.5],[1,0.5]];portConstraint=eastwest;top=0;left=0;right=0;bottom=0;" parent="U3F9iakPl_cf1ObfdUDb-14" vertex="1">
          <mxGeometry y="90" width="180" height="30" as="geometry" />
        </mxCell>
        <mxCell id="U3F9iakPl_cf1ObfdUDb-25" value="" style="shape=partialRectangle;connectable=0;fillColor=none;top=0;left=0;bottom=0;right=0;editable=1;overflow=hidden;" parent="U3F9iakPl_cf1ObfdUDb-24" vertex="1">
          <mxGeometry width="40" height="30" as="geometry">
            <mxRectangle width="40" height="30" as="alternateBounds" />
          </mxGeometry>
        </mxCell>
        <mxCell id="U3F9iakPl_cf1ObfdUDb-26" value="Fio_doctor" style="shape=partialRectangle;connectable=0;fillColor=none;top=0;left=0;bottom=0;right=0;align=left;spacingLeft=6;overflow=hidden;" parent="U3F9iakPl_cf1ObfdUDb-24" vertex="1">
          <mxGeometry x="40" width="140" height="30" as="geometry">
            <mxRectangle width="140" height="30" as="alternateBounds" />
          </mxGeometry>
        </mxCell>
        <mxCell id="U3F9iakPl_cf1ObfdUDb-18" value="" style="shape=tableRow;horizontal=0;startSize=0;swimlaneHead=0;swimlaneBody=0;fillColor=none;collapsible=0;dropTarget=0;points=[[0,0.5],[1,0.5]];portConstraint=eastwest;top=0;left=0;right=0;bottom=0;" parent="U3F9iakPl_cf1ObfdUDb-14" vertex="1">
          <mxGeometry y="120" width="180" height="30" as="geometry" />
        </mxCell>
        <mxCell id="U3F9iakPl_cf1ObfdUDb-19" value="" style="shape=partialRectangle;connectable=0;fillColor=none;top=0;left=0;bottom=0;right=0;editable=1;overflow=hidden;" parent="U3F9iakPl_cf1ObfdUDb-18" vertex="1">
          <mxGeometry width="40" height="30" as="geometry">
            <mxRectangle width="40" height="30" as="alternateBounds" />
          </mxGeometry>
        </mxCell>
        <mxCell id="U3F9iakPl_cf1ObfdUDb-20" value="Date_and_time_visit" style="shape=partialRectangle;connectable=0;fillColor=none;top=0;left=0;bottom=0;right=0;align=left;spacingLeft=6;overflow=hidden;" parent="U3F9iakPl_cf1ObfdUDb-18" vertex="1">
          <mxGeometry x="40" width="140" height="30" as="geometry">
            <mxRectangle width="140" height="30" as="alternateBounds" />
          </mxGeometry>
        </mxCell>
        <mxCell id="U3F9iakPl_cf1ObfdUDb-92" value="" style="shape=tableRow;horizontal=0;startSize=0;swimlaneHead=0;swimlaneBody=0;fillColor=none;collapsible=0;dropTarget=0;points=[[0,0.5],[1,0.5]];portConstraint=eastwest;top=0;left=0;right=0;bottom=0;" parent="U3F9iakPl_cf1ObfdUDb-14" vertex="1">
          <mxGeometry y="150" width="180" height="30" as="geometry" />
        </mxCell>
        <mxCell id="U3F9iakPl_cf1ObfdUDb-93" value="FK" style="shape=partialRectangle;connectable=0;fillColor=none;top=0;left=0;bottom=0;right=0;editable=1;overflow=hidden;fontStyle=1" parent="U3F9iakPl_cf1ObfdUDb-92" vertex="1">
          <mxGeometry width="40" height="30" as="geometry">
            <mxRectangle width="40" height="30" as="alternateBounds" />
          </mxGeometry>
        </mxCell>
        <mxCell id="U3F9iakPl_cf1ObfdUDb-94" value="Purpose_of_the_visit" style="shape=partialRectangle;connectable=0;fillColor=none;top=0;left=0;bottom=0;right=0;align=left;spacingLeft=6;overflow=hidden;" parent="U3F9iakPl_cf1ObfdUDb-92" vertex="1">
          <mxGeometry x="40" width="140" height="30" as="geometry">
            <mxRectangle width="140" height="30" as="alternateBounds" />
          </mxGeometry>
        </mxCell>
        <mxCell id="U3F9iakPl_cf1ObfdUDb-21" value="" style="shape=tableRow;horizontal=0;startSize=0;swimlaneHead=0;swimlaneBody=0;fillColor=none;collapsible=0;dropTarget=0;points=[[0,0.5],[1,0.5]];portConstraint=eastwest;top=0;left=0;right=0;bottom=0;" parent="U3F9iakPl_cf1ObfdUDb-14" vertex="1">
          <mxGeometry y="180" width="180" height="30" as="geometry" />
        </mxCell>
        <mxCell id="U3F9iakPl_cf1ObfdUDb-22" value="" style="shape=partialRectangle;connectable=0;fillColor=none;top=0;left=0;bottom=0;right=0;editable=1;overflow=hidden;" parent="U3F9iakPl_cf1ObfdUDb-21" vertex="1">
          <mxGeometry width="40" height="30" as="geometry">
            <mxRectangle width="40" height="30" as="alternateBounds" />
          </mxGeometry>
        </mxCell>
        <mxCell id="U3F9iakPl_cf1ObfdUDb-23" value="Price" style="shape=partialRectangle;connectable=0;fillColor=none;top=0;left=0;bottom=0;right=0;align=left;spacingLeft=6;overflow=hidden;" parent="U3F9iakPl_cf1ObfdUDb-21" vertex="1">
          <mxGeometry x="40" width="140" height="30" as="geometry">
            <mxRectangle width="140" height="30" as="alternateBounds" />
          </mxGeometry>
        </mxCell>
        <mxCell id="7-1CVHjXULgkSqzOs4-w-95" value="" style="shape=tableRow;horizontal=0;startSize=0;swimlaneHead=0;swimlaneBody=0;fillColor=none;collapsible=0;dropTarget=0;points=[[0,0.5],[1,0.5]];portConstraint=eastwest;top=0;left=0;right=0;bottom=0;" parent="U3F9iakPl_cf1ObfdUDb-14" vertex="1">
          <mxGeometry y="210" width="180" height="30" as="geometry" />
        </mxCell>
        <mxCell id="7-1CVHjXULgkSqzOs4-w-96" value="FK" style="shape=partialRectangle;connectable=0;fillColor=none;top=0;left=0;bottom=0;right=0;editable=1;overflow=hidden;fontStyle=1" parent="7-1CVHjXULgkSqzOs4-w-95" vertex="1">
          <mxGeometry width="40" height="30" as="geometry">
            <mxRectangle width="40" height="30" as="alternateBounds" />
          </mxGeometry>
        </mxCell>
        <mxCell id="7-1CVHjXULgkSqzOs4-w-97" value="Diagnosis" style="shape=partialRectangle;connectable=0;fillColor=none;top=0;left=0;bottom=0;right=0;align=left;spacingLeft=6;overflow=hidden;" parent="7-1CVHjXULgkSqzOs4-w-95" vertex="1">
          <mxGeometry x="40" width="140" height="30" as="geometry">
            <mxRectangle width="140" height="30" as="alternateBounds" />
          </mxGeometry>
        </mxCell>
        <mxCell id="U3F9iakPl_cf1ObfdUDb-27" value="Doctors" style="shape=table;startSize=25;container=1;collapsible=1;childLayout=tableLayout;fixedRows=1;rowLines=0;fontStyle=1;align=center;resizeLast=1;" parent="1" vertex="1">
          <mxGeometry x="360" y="495" width="180" height="180" as="geometry" />
        </mxCell>
        <mxCell id="U3F9iakPl_cf1ObfdUDb-28" value="" style="shape=tableRow;horizontal=0;startSize=0;swimlaneHead=0;swimlaneBody=0;fillColor=none;collapsible=0;dropTarget=0;points=[[0,0.5],[1,0.5]];portConstraint=eastwest;top=0;left=0;right=0;bottom=1;" parent="U3F9iakPl_cf1ObfdUDb-27" vertex="1">
          <mxGeometry y="25" width="180" height="30" as="geometry" />
        </mxCell>
        <mxCell id="U3F9iakPl_cf1ObfdUDb-29" value="PK" style="shape=partialRectangle;connectable=0;fillColor=none;top=0;left=0;bottom=0;right=0;fontStyle=1;overflow=hidden;" parent="U3F9iakPl_cf1ObfdUDb-28" vertex="1">
          <mxGeometry width="30" height="30" as="geometry">
            <mxRectangle width="30" height="30" as="alternateBounds" />
          </mxGeometry>
        </mxCell>
        <mxCell id="U3F9iakPl_cf1ObfdUDb-30" value="id_doctor" style="shape=partialRectangle;connectable=0;fillColor=none;top=0;left=0;bottom=0;right=0;align=left;spacingLeft=6;fontStyle=5;overflow=hidden;" parent="U3F9iakPl_cf1ObfdUDb-28" vertex="1">
          <mxGeometry x="30" width="150" height="30" as="geometry">
            <mxRectangle width="150" height="30" as="alternateBounds" />
          </mxGeometry>
        </mxCell>
        <mxCell id="U3F9iakPl_cf1ObfdUDb-31" value="" style="shape=tableRow;horizontal=0;startSize=0;swimlaneHead=0;swimlaneBody=0;fillColor=none;collapsible=0;dropTarget=0;points=[[0,0.5],[1,0.5]];portConstraint=eastwest;top=0;left=0;right=0;bottom=0;" parent="U3F9iakPl_cf1ObfdUDb-27" vertex="1">
          <mxGeometry y="55" width="180" height="30" as="geometry" />
        </mxCell>
        <mxCell id="U3F9iakPl_cf1ObfdUDb-32" value="" style="shape=partialRectangle;connectable=0;fillColor=none;top=0;left=0;bottom=0;right=0;editable=1;overflow=hidden;" parent="U3F9iakPl_cf1ObfdUDb-31" vertex="1">
          <mxGeometry width="30" height="30" as="geometry">
            <mxRectangle width="30" height="30" as="alternateBounds" />
          </mxGeometry>
        </mxCell>
        <mxCell id="U3F9iakPl_cf1ObfdUDb-33" value="Fio_doctor" style="shape=partialRectangle;connectable=0;fillColor=none;top=0;left=0;bottom=0;right=0;align=left;spacingLeft=6;overflow=hidden;" parent="U3F9iakPl_cf1ObfdUDb-31" vertex="1">
          <mxGeometry x="30" width="150" height="30" as="geometry">
            <mxRectangle width="150" height="30" as="alternateBounds" />
          </mxGeometry>
        </mxCell>
        <mxCell id="U3F9iakPl_cf1ObfdUDb-34" value="" style="shape=tableRow;horizontal=0;startSize=0;swimlaneHead=0;swimlaneBody=0;fillColor=none;collapsible=0;dropTarget=0;points=[[0,0.5],[1,0.5]];portConstraint=eastwest;top=0;left=0;right=0;bottom=0;" parent="U3F9iakPl_cf1ObfdUDb-27" vertex="1">
          <mxGeometry y="85" width="180" height="30" as="geometry" />
        </mxCell>
        <mxCell id="U3F9iakPl_cf1ObfdUDb-35" value="" style="shape=partialRectangle;connectable=0;fillColor=none;top=0;left=0;bottom=0;right=0;editable=1;overflow=hidden;" parent="U3F9iakPl_cf1ObfdUDb-34" vertex="1">
          <mxGeometry width="30" height="30" as="geometry">
            <mxRectangle width="30" height="30" as="alternateBounds" />
          </mxGeometry>
        </mxCell>
        <mxCell id="U3F9iakPl_cf1ObfdUDb-36" value="Phone" style="shape=partialRectangle;connectable=0;fillColor=none;top=0;left=0;bottom=0;right=0;align=left;spacingLeft=6;overflow=hidden;" parent="U3F9iakPl_cf1ObfdUDb-34" vertex="1">
          <mxGeometry x="30" width="150" height="30" as="geometry">
            <mxRectangle width="150" height="30" as="alternateBounds" />
          </mxGeometry>
        </mxCell>
        <mxCell id="U3F9iakPl_cf1ObfdUDb-37" value="" style="shape=tableRow;horizontal=0;startSize=0;swimlaneHead=0;swimlaneBody=0;fillColor=none;collapsible=0;dropTarget=0;points=[[0,0.5],[1,0.5]];portConstraint=eastwest;top=0;left=0;right=0;bottom=0;" parent="U3F9iakPl_cf1ObfdUDb-27" vertex="1">
          <mxGeometry y="115" width="180" height="30" as="geometry" />
        </mxCell>
        <mxCell id="U3F9iakPl_cf1ObfdUDb-38" value="FK" style="shape=partialRectangle;connectable=0;fillColor=none;top=0;left=0;bottom=0;right=0;editable=1;overflow=hidden;fontStyle=1" parent="U3F9iakPl_cf1ObfdUDb-37" vertex="1">
          <mxGeometry width="30" height="30" as="geometry">
            <mxRectangle width="30" height="30" as="alternateBounds" />
          </mxGeometry>
        </mxCell>
        <mxCell id="U3F9iakPl_cf1ObfdUDb-39" value="Specialization" style="shape=partialRectangle;connectable=0;fillColor=none;top=0;left=0;bottom=0;right=0;align=left;spacingLeft=6;overflow=hidden;" parent="U3F9iakPl_cf1ObfdUDb-37" vertex="1">
          <mxGeometry x="30" width="150" height="30" as="geometry">
            <mxRectangle width="150" height="30" as="alternateBounds" />
          </mxGeometry>
        </mxCell>
        <mxCell id="7-1CVHjXULgkSqzOs4-w-34" value="" style="shape=tableRow;horizontal=0;startSize=0;swimlaneHead=0;swimlaneBody=0;fillColor=none;collapsible=0;dropTarget=0;points=[[0,0.5],[1,0.5]];portConstraint=eastwest;top=0;left=0;right=0;bottom=0;" parent="U3F9iakPl_cf1ObfdUDb-27" vertex="1">
          <mxGeometry y="145" width="180" height="30" as="geometry" />
        </mxCell>
        <mxCell id="7-1CVHjXULgkSqzOs4-w-35" value="FK" style="shape=partialRectangle;connectable=0;fillColor=none;top=0;left=0;bottom=0;right=0;editable=1;overflow=hidden;fontStyle=1" parent="7-1CVHjXULgkSqzOs4-w-34" vertex="1">
          <mxGeometry width="30" height="30" as="geometry">
            <mxRectangle width="30" height="30" as="alternateBounds" />
          </mxGeometry>
        </mxCell>
        <mxCell id="7-1CVHjXULgkSqzOs4-w-36" value="Category" style="shape=partialRectangle;connectable=0;fillColor=none;top=0;left=0;bottom=0;right=0;align=left;spacingLeft=6;overflow=hidden;" parent="7-1CVHjXULgkSqzOs4-w-34" vertex="1">
          <mxGeometry x="30" width="150" height="30" as="geometry">
            <mxRectangle width="150" height="30" as="alternateBounds" />
          </mxGeometry>
        </mxCell>
        <mxCell id="U3F9iakPl_cf1ObfdUDb-40" value="Patients" style="shape=table;startSize=30;container=1;collapsible=1;childLayout=tableLayout;fixedRows=1;rowLines=0;fontStyle=1;align=center;resizeLast=1;" parent="1" vertex="1">
          <mxGeometry x="863" y="50" width="197" height="200" as="geometry" />
        </mxCell>
        <mxCell id="U3F9iakPl_cf1ObfdUDb-41" value="" style="shape=tableRow;horizontal=0;startSize=0;swimlaneHead=0;swimlaneBody=0;fillColor=none;collapsible=0;dropTarget=0;points=[[0,0.5],[1,0.5]];portConstraint=eastwest;top=0;left=0;right=0;bottom=1;" parent="U3F9iakPl_cf1ObfdUDb-40" vertex="1">
          <mxGeometry y="30" width="197" height="30" as="geometry" />
        </mxCell>
        <mxCell id="U3F9iakPl_cf1ObfdUDb-42" value="PK" style="shape=partialRectangle;connectable=0;fillColor=none;top=0;left=0;bottom=0;right=0;fontStyle=1;overflow=hidden;" parent="U3F9iakPl_cf1ObfdUDb-41" vertex="1">
          <mxGeometry width="40" height="30" as="geometry">
            <mxRectangle width="40" height="30" as="alternateBounds" />
          </mxGeometry>
        </mxCell>
        <mxCell id="U3F9iakPl_cf1ObfdUDb-43" value="id_patient" style="shape=partialRectangle;connectable=0;fillColor=none;top=0;left=0;bottom=0;right=0;align=left;spacingLeft=6;fontStyle=5;overflow=hidden;" parent="U3F9iakPl_cf1ObfdUDb-41" vertex="1">
          <mxGeometry x="40" width="157" height="30" as="geometry">
            <mxRectangle width="157" height="30" as="alternateBounds" />
          </mxGeometry>
        </mxCell>
        <mxCell id="U3F9iakPl_cf1ObfdUDb-44" value="" style="shape=tableRow;horizontal=0;startSize=0;swimlaneHead=0;swimlaneBody=0;fillColor=none;collapsible=0;dropTarget=0;points=[[0,0.5],[1,0.5]];portConstraint=eastwest;top=0;left=0;right=0;bottom=0;" parent="U3F9iakPl_cf1ObfdUDb-40" vertex="1">
          <mxGeometry y="60" width="197" height="30" as="geometry" />
        </mxCell>
        <mxCell id="U3F9iakPl_cf1ObfdUDb-45" value="" style="shape=partialRectangle;connectable=0;fillColor=none;top=0;left=0;bottom=0;right=0;editable=1;overflow=hidden;" parent="U3F9iakPl_cf1ObfdUDb-44" vertex="1">
          <mxGeometry width="40" height="30" as="geometry">
            <mxRectangle width="40" height="30" as="alternateBounds" />
          </mxGeometry>
        </mxCell>
        <mxCell id="U3F9iakPl_cf1ObfdUDb-46" value="Fio_patient" style="shape=partialRectangle;connectable=0;fillColor=none;top=0;left=0;bottom=0;right=0;align=left;spacingLeft=6;overflow=hidden;" parent="U3F9iakPl_cf1ObfdUDb-44" vertex="1">
          <mxGeometry x="40" width="157" height="30" as="geometry">
            <mxRectangle width="157" height="30" as="alternateBounds" />
          </mxGeometry>
        </mxCell>
        <mxCell id="U3F9iakPl_cf1ObfdUDb-47" value="" style="shape=tableRow;horizontal=0;startSize=0;swimlaneHead=0;swimlaneBody=0;fillColor=none;collapsible=0;dropTarget=0;points=[[0,0.5],[1,0.5]];portConstraint=eastwest;top=0;left=0;right=0;bottom=0;" parent="U3F9iakPl_cf1ObfdUDb-40" vertex="1">
          <mxGeometry y="90" width="197" height="30" as="geometry" />
        </mxCell>
        <mxCell id="U3F9iakPl_cf1ObfdUDb-48" value="" style="shape=partialRectangle;connectable=0;fillColor=none;top=0;left=0;bottom=0;right=0;editable=1;overflow=hidden;" parent="U3F9iakPl_cf1ObfdUDb-47" vertex="1">
          <mxGeometry width="40" height="30" as="geometry">
            <mxRectangle width="40" height="30" as="alternateBounds" />
          </mxGeometry>
        </mxCell>
        <mxCell id="U3F9iakPl_cf1ObfdUDb-49" value="Phone_patient" style="shape=partialRectangle;connectable=0;fillColor=none;top=0;left=0;bottom=0;right=0;align=left;spacingLeft=6;overflow=hidden;" parent="U3F9iakPl_cf1ObfdUDb-47" vertex="1">
          <mxGeometry x="40" width="157" height="30" as="geometry">
            <mxRectangle width="157" height="30" as="alternateBounds" />
          </mxGeometry>
        </mxCell>
        <mxCell id="U3F9iakPl_cf1ObfdUDb-50" value="" style="shape=tableRow;horizontal=0;startSize=0;swimlaneHead=0;swimlaneBody=0;fillColor=none;collapsible=0;dropTarget=0;points=[[0,0.5],[1,0.5]];portConstraint=eastwest;top=0;left=0;right=0;bottom=0;" parent="U3F9iakPl_cf1ObfdUDb-40" vertex="1">
          <mxGeometry y="120" width="197" height="30" as="geometry" />
        </mxCell>
        <mxCell id="U3F9iakPl_cf1ObfdUDb-51" value="" style="shape=partialRectangle;connectable=0;fillColor=none;top=0;left=0;bottom=0;right=0;editable=1;overflow=hidden;" parent="U3F9iakPl_cf1ObfdUDb-50" vertex="1">
          <mxGeometry width="40" height="30" as="geometry">
            <mxRectangle width="40" height="30" as="alternateBounds" />
          </mxGeometry>
        </mxCell>
        <mxCell id="U3F9iakPl_cf1ObfdUDb-52" value="Year_of_Birth" style="shape=partialRectangle;connectable=0;fillColor=none;top=0;left=0;bottom=0;right=0;align=left;spacingLeft=6;overflow=hidden;" parent="U3F9iakPl_cf1ObfdUDb-50" vertex="1">
          <mxGeometry x="40" width="157" height="30" as="geometry">
            <mxRectangle width="157" height="30" as="alternateBounds" />
          </mxGeometry>
        </mxCell>
        <mxCell id="U3F9iakPl_cf1ObfdUDb-95" value="" style="shape=tableRow;horizontal=0;startSize=0;swimlaneHead=0;swimlaneBody=0;fillColor=none;collapsible=0;dropTarget=0;points=[[0,0.5],[1,0.5]];portConstraint=eastwest;top=0;left=0;right=0;bottom=0;" parent="U3F9iakPl_cf1ObfdUDb-40" vertex="1">
          <mxGeometry y="150" width="197" height="30" as="geometry" />
        </mxCell>
        <mxCell id="U3F9iakPl_cf1ObfdUDb-96" value="" style="shape=partialRectangle;connectable=0;fillColor=none;top=0;left=0;bottom=0;right=0;editable=1;overflow=hidden;" parent="U3F9iakPl_cf1ObfdUDb-95" vertex="1">
          <mxGeometry width="40" height="30" as="geometry">
            <mxRectangle width="40" height="30" as="alternateBounds" />
          </mxGeometry>
        </mxCell>
        <mxCell id="U3F9iakPl_cf1ObfdUDb-97" value="" style="shape=partialRectangle;connectable=0;fillColor=none;top=0;left=0;bottom=0;right=0;align=left;spacingLeft=6;overflow=hidden;" parent="U3F9iakPl_cf1ObfdUDb-95" vertex="1">
          <mxGeometry x="40" width="157" height="30" as="geometry">
            <mxRectangle width="157" height="30" as="alternateBounds" />
          </mxGeometry>
        </mxCell>
        <mxCell id="U3F9iakPl_cf1ObfdUDb-98" value="" style="shape=tableRow;horizontal=0;startSize=0;swimlaneHead=0;swimlaneBody=0;fillColor=none;collapsible=0;dropTarget=0;points=[[0,0.5],[1,0.5]];portConstraint=eastwest;top=0;left=0;right=0;bottom=0;" parent="U3F9iakPl_cf1ObfdUDb-40" vertex="1">
          <mxGeometry y="180" width="197" height="20" as="geometry" />
        </mxCell>
        <mxCell id="U3F9iakPl_cf1ObfdUDb-99" value="" style="shape=partialRectangle;connectable=0;fillColor=none;top=0;left=0;bottom=0;right=0;editable=1;overflow=hidden;" parent="U3F9iakPl_cf1ObfdUDb-98" vertex="1">
          <mxGeometry width="40" height="20" as="geometry">
            <mxRectangle width="40" height="20" as="alternateBounds" />
          </mxGeometry>
        </mxCell>
        <mxCell id="U3F9iakPl_cf1ObfdUDb-100" value="" style="shape=partialRectangle;connectable=0;fillColor=none;top=0;left=0;bottom=0;right=0;align=left;spacingLeft=6;overflow=hidden;" parent="U3F9iakPl_cf1ObfdUDb-98" vertex="1">
          <mxGeometry x="40" width="157" height="20" as="geometry">
            <mxRectangle width="157" height="20" as="alternateBounds" />
          </mxGeometry>
        </mxCell>
        <mxCell id="U3F9iakPl_cf1ObfdUDb-66" value="Servises" style="shape=table;startSize=30;container=1;collapsible=1;childLayout=tableLayout;fixedRows=1;rowLines=0;fontStyle=1;align=center;resizeLast=1;" parent="1" vertex="1">
          <mxGeometry y="450" width="180" height="140" as="geometry" />
        </mxCell>
        <mxCell id="U3F9iakPl_cf1ObfdUDb-67" value="" style="shape=tableRow;horizontal=0;startSize=0;swimlaneHead=0;swimlaneBody=0;fillColor=none;collapsible=0;dropTarget=0;points=[[0,0.5],[1,0.5]];portConstraint=eastwest;top=0;left=0;right=0;bottom=1;" parent="U3F9iakPl_cf1ObfdUDb-66" vertex="1">
          <mxGeometry y="30" width="180" height="30" as="geometry" />
        </mxCell>
        <mxCell id="U3F9iakPl_cf1ObfdUDb-68" value="PK" style="shape=partialRectangle;connectable=0;fillColor=none;top=0;left=0;bottom=0;right=0;fontStyle=1;overflow=hidden;" parent="U3F9iakPl_cf1ObfdUDb-67" vertex="1">
          <mxGeometry width="23.000000000000227" height="30" as="geometry">
            <mxRectangle width="23.000000000000227" height="30" as="alternateBounds" />
          </mxGeometry>
        </mxCell>
        <mxCell id="U3F9iakPl_cf1ObfdUDb-69" value="id_servis" style="shape=partialRectangle;connectable=0;fillColor=none;top=0;left=0;bottom=0;right=0;align=left;spacingLeft=6;fontStyle=5;overflow=hidden;" parent="U3F9iakPl_cf1ObfdUDb-67" vertex="1">
          <mxGeometry x="23.000000000000227" width="156.99999999999977" height="30" as="geometry">
            <mxRectangle width="156.99999999999977" height="30" as="alternateBounds" />
          </mxGeometry>
        </mxCell>
        <mxCell id="U3F9iakPl_cf1ObfdUDb-70" value="" style="shape=tableRow;horizontal=0;startSize=0;swimlaneHead=0;swimlaneBody=0;fillColor=none;collapsible=0;dropTarget=0;points=[[0,0.5],[1,0.5]];portConstraint=eastwest;top=0;left=0;right=0;bottom=0;" parent="U3F9iakPl_cf1ObfdUDb-66" vertex="1">
          <mxGeometry y="60" width="180" height="30" as="geometry" />
        </mxCell>
        <mxCell id="U3F9iakPl_cf1ObfdUDb-71" value="FK" style="shape=partialRectangle;connectable=0;fillColor=none;top=0;left=0;bottom=0;right=0;editable=1;overflow=hidden;" parent="U3F9iakPl_cf1ObfdUDb-70" vertex="1">
          <mxGeometry width="23.000000000000227" height="30" as="geometry">
            <mxRectangle width="23.000000000000227" height="30" as="alternateBounds" />
          </mxGeometry>
        </mxCell>
        <mxCell id="U3F9iakPl_cf1ObfdUDb-72" value="name_servis" style="shape=partialRectangle;connectable=0;fillColor=none;top=0;left=0;bottom=0;right=0;align=left;spacingLeft=6;overflow=hidden;" parent="U3F9iakPl_cf1ObfdUDb-70" vertex="1">
          <mxGeometry x="23.000000000000227" width="156.99999999999977" height="30" as="geometry">
            <mxRectangle width="156.99999999999977" height="30" as="alternateBounds" />
          </mxGeometry>
        </mxCell>
        <mxCell id="U3F9iakPl_cf1ObfdUDb-73" value="" style="shape=tableRow;horizontal=0;startSize=0;swimlaneHead=0;swimlaneBody=0;fillColor=none;collapsible=0;dropTarget=0;points=[[0,0.5],[1,0.5]];portConstraint=eastwest;top=0;left=0;right=0;bottom=0;" parent="U3F9iakPl_cf1ObfdUDb-66" vertex="1">
          <mxGeometry y="90" width="180" height="30" as="geometry" />
        </mxCell>
        <mxCell id="U3F9iakPl_cf1ObfdUDb-74" value="" style="shape=partialRectangle;connectable=0;fillColor=none;top=0;left=0;bottom=0;right=0;editable=1;overflow=hidden;" parent="U3F9iakPl_cf1ObfdUDb-73" vertex="1">
          <mxGeometry width="23.000000000000227" height="30" as="geometry">
            <mxRectangle width="23.000000000000227" height="30" as="alternateBounds" />
          </mxGeometry>
        </mxCell>
        <mxCell id="U3F9iakPl_cf1ObfdUDb-75" value="" style="shape=partialRectangle;connectable=0;fillColor=none;top=0;left=0;bottom=0;right=0;align=left;spacingLeft=6;overflow=hidden;" parent="U3F9iakPl_cf1ObfdUDb-73" vertex="1">
          <mxGeometry x="23.000000000000227" width="156.99999999999977" height="30" as="geometry">
            <mxRectangle width="156.99999999999977" height="30" as="alternateBounds" />
          </mxGeometry>
        </mxCell>
        <mxCell id="U3F9iakPl_cf1ObfdUDb-76" value="" style="shape=tableRow;horizontal=0;startSize=0;swimlaneHead=0;swimlaneBody=0;fillColor=none;collapsible=0;dropTarget=0;points=[[0,0.5],[1,0.5]];portConstraint=eastwest;top=0;left=0;right=0;bottom=0;" parent="U3F9iakPl_cf1ObfdUDb-66" vertex="1">
          <mxGeometry y="120" width="180" height="20" as="geometry" />
        </mxCell>
        <mxCell id="U3F9iakPl_cf1ObfdUDb-77" value="" style="shape=partialRectangle;connectable=0;fillColor=none;top=0;left=0;bottom=0;right=0;editable=1;overflow=hidden;" parent="U3F9iakPl_cf1ObfdUDb-76" vertex="1">
          <mxGeometry width="23.000000000000227" height="20" as="geometry">
            <mxRectangle width="23.000000000000227" height="20" as="alternateBounds" />
          </mxGeometry>
        </mxCell>
        <mxCell id="U3F9iakPl_cf1ObfdUDb-78" value="" style="shape=partialRectangle;connectable=0;fillColor=none;top=0;left=0;bottom=0;right=0;align=left;spacingLeft=6;overflow=hidden;" parent="U3F9iakPl_cf1ObfdUDb-76" vertex="1">
          <mxGeometry x="23.000000000000227" width="156.99999999999977" height="20" as="geometry">
            <mxRectangle width="156.99999999999977" height="20" as="alternateBounds" />
          </mxGeometry>
        </mxCell>
        <mxCell id="7-1CVHjXULgkSqzOs4-w-2" value="Doctor&#39;s_services" style="shape=table;startSize=30;container=1;collapsible=1;childLayout=tableLayout;fixedRows=0;rowLines=0;fontStyle=1;align=center;resizeLast=0;strokeWidth=1;perimeterSpacing=1;shadow=0;rounded=0;aspect=fixed;columnLines=1;" parent="1" vertex="1">
          <mxGeometry x="190" y="780" width="143.99" height="123" as="geometry" />
        </mxCell>
        <mxCell id="7-1CVHjXULgkSqzOs4-w-6" value="" style="shape=tableRow;horizontal=0;startSize=0;swimlaneHead=0;swimlaneBody=0;fillColor=none;collapsible=0;dropTarget=0;points=[[0,0.5],[1,0.5]];portConstraint=eastwest;top=0;left=0;right=0;bottom=0;" parent="7-1CVHjXULgkSqzOs4-w-2" vertex="1">
          <mxGeometry y="30" width="143.99" height="27" as="geometry" />
        </mxCell>
        <mxCell id="7-1CVHjXULgkSqzOs4-w-7" value="" style="shape=partialRectangle;connectable=0;fillColor=none;top=0;left=0;bottom=0;right=0;editable=1;overflow=hidden;" parent="7-1CVHjXULgkSqzOs4-w-6" vertex="1">
          <mxGeometry width="27" height="27" as="geometry">
            <mxRectangle width="27" height="27" as="alternateBounds" />
          </mxGeometry>
        </mxCell>
        <mxCell id="7-1CVHjXULgkSqzOs4-w-8" value="id_doctor" style="shape=partialRectangle;connectable=0;fillColor=none;top=0;left=0;bottom=0;right=0;align=left;spacingLeft=6;overflow=hidden;" parent="7-1CVHjXULgkSqzOs4-w-6" vertex="1">
          <mxGeometry x="27" width="117" height="27" as="geometry">
            <mxRectangle width="117" height="27" as="alternateBounds" />
          </mxGeometry>
        </mxCell>
        <mxCell id="7-1CVHjXULgkSqzOs4-w-9" value="" style="shape=tableRow;horizontal=0;startSize=0;swimlaneHead=0;swimlaneBody=0;fillColor=none;collapsible=0;dropTarget=0;points=[[0,0.5],[1,0.5]];portConstraint=eastwest;top=0;left=0;right=0;bottom=0;" parent="7-1CVHjXULgkSqzOs4-w-2" vertex="1">
          <mxGeometry y="57" width="143.99" height="29" as="geometry" />
        </mxCell>
        <mxCell id="7-1CVHjXULgkSqzOs4-w-10" value="" style="shape=partialRectangle;connectable=0;fillColor=none;top=0;left=0;bottom=0;right=0;editable=1;overflow=hidden;" parent="7-1CVHjXULgkSqzOs4-w-9" vertex="1">
          <mxGeometry width="27" height="29" as="geometry">
            <mxRectangle width="27" height="29" as="alternateBounds" />
          </mxGeometry>
        </mxCell>
        <mxCell id="7-1CVHjXULgkSqzOs4-w-11" value="id_servis" style="shape=partialRectangle;connectable=0;fillColor=none;top=0;left=0;bottom=0;right=0;align=left;spacingLeft=6;overflow=hidden;" parent="7-1CVHjXULgkSqzOs4-w-9" vertex="1">
          <mxGeometry x="27" width="117" height="29" as="geometry">
            <mxRectangle width="117" height="29" as="alternateBounds" />
          </mxGeometry>
        </mxCell>
        <mxCell id="7-1CVHjXULgkSqzOs4-w-12" value="" style="shape=tableRow;horizontal=0;startSize=0;swimlaneHead=0;swimlaneBody=0;fillColor=none;collapsible=0;dropTarget=0;points=[[0,0.5],[1,0.5]];portConstraint=eastwest;top=0;left=0;right=0;bottom=0;" parent="7-1CVHjXULgkSqzOs4-w-2" vertex="1">
          <mxGeometry y="86" width="143.99" height="17" as="geometry" />
        </mxCell>
        <mxCell id="7-1CVHjXULgkSqzOs4-w-13" value="" style="shape=partialRectangle;connectable=0;fillColor=none;top=0;left=0;bottom=0;right=0;editable=1;overflow=hidden;" parent="7-1CVHjXULgkSqzOs4-w-12" vertex="1">
          <mxGeometry width="27" height="17" as="geometry">
            <mxRectangle width="27" height="17" as="alternateBounds" />
          </mxGeometry>
        </mxCell>
        <mxCell id="7-1CVHjXULgkSqzOs4-w-14" value="" style="shape=partialRectangle;connectable=0;fillColor=none;top=0;left=0;bottom=0;right=0;align=left;spacingLeft=6;overflow=hidden;" parent="7-1CVHjXULgkSqzOs4-w-12" vertex="1">
          <mxGeometry x="27" width="117" height="17" as="geometry">
            <mxRectangle width="117" height="17" as="alternateBounds" />
          </mxGeometry>
        </mxCell>
        <mxCell id="7-1CVHjXULgkSqzOs4-w-15" value="" style="shape=tableRow;horizontal=0;startSize=0;swimlaneHead=0;swimlaneBody=0;fillColor=none;collapsible=0;dropTarget=0;points=[[0,0.5],[1,0.5]];portConstraint=eastwest;top=0;left=0;right=0;bottom=0;" parent="7-1CVHjXULgkSqzOs4-w-2" vertex="1">
          <mxGeometry y="103" width="143.99" height="20" as="geometry" />
        </mxCell>
        <mxCell id="7-1CVHjXULgkSqzOs4-w-16" value="" style="shape=partialRectangle;connectable=0;fillColor=none;top=0;left=0;bottom=0;right=0;editable=1;overflow=hidden;" parent="7-1CVHjXULgkSqzOs4-w-15" vertex="1">
          <mxGeometry width="27" height="20" as="geometry">
            <mxRectangle width="27" height="20" as="alternateBounds" />
          </mxGeometry>
        </mxCell>
        <mxCell id="7-1CVHjXULgkSqzOs4-w-17" value="" style="shape=partialRectangle;connectable=0;fillColor=none;top=0;left=0;bottom=0;right=0;align=left;spacingLeft=6;overflow=hidden;" parent="7-1CVHjXULgkSqzOs4-w-15" vertex="1">
          <mxGeometry x="27" width="117" height="20" as="geometry">
            <mxRectangle width="117" height="20" as="alternateBounds" />
          </mxGeometry>
        </mxCell>
        <mxCell id="7-1CVHjXULgkSqzOs4-w-19" value="" style="edgeStyle=entityRelationEdgeStyle;fontSize=12;html=1;endArrow=ERmany;startArrow=ERmany;rounded=0;entryX=0;entryY=0.5;entryDx=0;entryDy=0;exitX=1;exitY=0.5;exitDx=0;exitDy=0;" parent="1" source="U3F9iakPl_cf1ObfdUDb-28" target="vZ06RPUVE-HRvh0mER_O-16" edge="1">
          <mxGeometry width="100" height="100" relative="1" as="geometry">
            <mxPoint x="400.01" y="670" as="sourcePoint" />
            <mxPoint x="500.01" y="570" as="targetPoint" />
          </mxGeometry>
        </mxCell>
        <mxCell id="7-1CVHjXULgkSqzOs4-w-20" value="" style="edgeStyle=entityRelationEdgeStyle;fontSize=12;html=1;endArrow=ERmany;startArrow=ERmany;rounded=0;entryX=0;entryY=0.5;entryDx=0;entryDy=0;exitX=1;exitY=0.5;exitDx=0;exitDy=0;" parent="1" source="U3F9iakPl_cf1ObfdUDb-67" target="7-1CVHjXULgkSqzOs4-w-9" edge="1">
          <mxGeometry width="100" height="100" relative="1" as="geometry">
            <mxPoint x="560.01" y="700" as="sourcePoint" />
            <mxPoint x="660.01" y="600" as="targetPoint" />
          </mxGeometry>
        </mxCell>
        <mxCell id="7-1CVHjXULgkSqzOs4-w-143" value="" style="edgeStyle=entityRelationEdgeStyle;fontSize=12;html=1;endArrow=ERoneToMany;rounded=0;entryX=1;entryY=0.5;entryDx=0;entryDy=0;exitX=-0.013;exitY=0.038;exitDx=0;exitDy=0;exitPerimeter=0;" parent="1" source="U3F9iakPl_cf1ObfdUDb-47" target="7-1CVHjXULgkSqzOs4-w-140" edge="1">
          <mxGeometry width="100" height="100" relative="1" as="geometry">
            <mxPoint x="310" y="390" as="sourcePoint" />
            <mxPoint x="410" y="290" as="targetPoint" />
          </mxGeometry>
        </mxCell>
        <mxCell id="7-1CVHjXULgkSqzOs4-w-144" value="" style="edgeStyle=entityRelationEdgeStyle;fontSize=12;html=1;endArrow=ERoneToMany;rounded=0;entryX=0;entryY=0.5;entryDx=0;entryDy=0;exitX=1;exitY=0.5;exitDx=0;exitDy=0;" parent="1" source="U3F9iakPl_cf1ObfdUDb-31" target="U3F9iakPl_cf1ObfdUDb-24" edge="1">
          <mxGeometry width="100" height="100" relative="1" as="geometry">
            <mxPoint x="283.5" y="240" as="sourcePoint" />
            <mxPoint x="436.5" y="230" as="targetPoint" />
          </mxGeometry>
        </mxCell>
        <mxCell id="vZ06RPUVE-HRvh0mER_O-2" value="Spezalization" style="shape=table;startSize=30;container=1;collapsible=1;childLayout=tableLayout;fixedRows=0;rowLines=0;fontStyle=1;align=center;resizeLast=0;strokeWidth=1;perimeterSpacing=1;shadow=0;rounded=0;aspect=fixed;columnLines=1;" parent="1" vertex="1">
          <mxGeometry x="440.99" y="750" width="143.99" height="123" as="geometry" />
        </mxCell>
        <mxCell id="vZ06RPUVE-HRvh0mER_O-3" value="" style="shape=tableRow;horizontal=0;startSize=0;swimlaneHead=0;swimlaneBody=0;fillColor=none;collapsible=0;dropTarget=0;points=[[0,0.5],[1,0.5]];portConstraint=eastwest;top=0;left=0;right=0;bottom=0;" parent="vZ06RPUVE-HRvh0mER_O-2" vertex="1">
          <mxGeometry y="30" width="143.99" height="27" as="geometry" />
        </mxCell>
        <mxCell id="vZ06RPUVE-HRvh0mER_O-4" value="" style="shape=partialRectangle;connectable=0;fillColor=none;top=0;left=0;bottom=0;right=0;editable=1;overflow=hidden;" parent="vZ06RPUVE-HRvh0mER_O-3" vertex="1">
          <mxGeometry width="27" height="27" as="geometry">
            <mxRectangle width="27" height="27" as="alternateBounds" />
          </mxGeometry>
        </mxCell>
        <mxCell id="vZ06RPUVE-HRvh0mER_O-5" value="id_spec" style="shape=partialRectangle;connectable=0;fillColor=none;top=0;left=0;bottom=0;right=0;align=left;spacingLeft=6;overflow=hidden;" parent="vZ06RPUVE-HRvh0mER_O-3" vertex="1">
          <mxGeometry x="27" width="117" height="27" as="geometry">
            <mxRectangle width="117" height="27" as="alternateBounds" />
          </mxGeometry>
        </mxCell>
        <mxCell id="vZ06RPUVE-HRvh0mER_O-6" value="" style="shape=tableRow;horizontal=0;startSize=0;swimlaneHead=0;swimlaneBody=0;fillColor=none;collapsible=0;dropTarget=0;points=[[0,0.5],[1,0.5]];portConstraint=eastwest;top=0;left=0;right=0;bottom=0;" parent="vZ06RPUVE-HRvh0mER_O-2" vertex="1">
          <mxGeometry y="57" width="143.99" height="29" as="geometry" />
        </mxCell>
        <mxCell id="vZ06RPUVE-HRvh0mER_O-7" value="" style="shape=partialRectangle;connectable=0;fillColor=none;top=0;left=0;bottom=0;right=0;editable=1;overflow=hidden;" parent="vZ06RPUVE-HRvh0mER_O-6" vertex="1">
          <mxGeometry width="27" height="29" as="geometry">
            <mxRectangle width="27" height="29" as="alternateBounds" />
          </mxGeometry>
        </mxCell>
        <mxCell id="vZ06RPUVE-HRvh0mER_O-8" value="name" style="shape=partialRectangle;connectable=0;fillColor=none;top=0;left=0;bottom=0;right=0;align=left;spacingLeft=6;overflow=hidden;" parent="vZ06RPUVE-HRvh0mER_O-6" vertex="1">
          <mxGeometry x="27" width="117" height="29" as="geometry">
            <mxRectangle width="117" height="29" as="alternateBounds" />
          </mxGeometry>
        </mxCell>
        <mxCell id="vZ06RPUVE-HRvh0mER_O-9" value="" style="shape=tableRow;horizontal=0;startSize=0;swimlaneHead=0;swimlaneBody=0;fillColor=none;collapsible=0;dropTarget=0;points=[[0,0.5],[1,0.5]];portConstraint=eastwest;top=0;left=0;right=0;bottom=0;" parent="vZ06RPUVE-HRvh0mER_O-2" vertex="1">
          <mxGeometry y="86" width="143.99" height="17" as="geometry" />
        </mxCell>
        <mxCell id="vZ06RPUVE-HRvh0mER_O-10" value="" style="shape=partialRectangle;connectable=0;fillColor=none;top=0;left=0;bottom=0;right=0;editable=1;overflow=hidden;" parent="vZ06RPUVE-HRvh0mER_O-9" vertex="1">
          <mxGeometry width="27" height="17" as="geometry">
            <mxRectangle width="27" height="17" as="alternateBounds" />
          </mxGeometry>
        </mxCell>
        <mxCell id="vZ06RPUVE-HRvh0mER_O-11" value="" style="shape=partialRectangle;connectable=0;fillColor=none;top=0;left=0;bottom=0;right=0;align=left;spacingLeft=6;overflow=hidden;" parent="vZ06RPUVE-HRvh0mER_O-9" vertex="1">
          <mxGeometry x="27" width="117" height="17" as="geometry">
            <mxRectangle width="117" height="17" as="alternateBounds" />
          </mxGeometry>
        </mxCell>
        <mxCell id="vZ06RPUVE-HRvh0mER_O-12" value="" style="shape=tableRow;horizontal=0;startSize=0;swimlaneHead=0;swimlaneBody=0;fillColor=none;collapsible=0;dropTarget=0;points=[[0,0.5],[1,0.5]];portConstraint=eastwest;top=0;left=0;right=0;bottom=0;" parent="vZ06RPUVE-HRvh0mER_O-2" vertex="1">
          <mxGeometry y="103" width="143.99" height="20" as="geometry" />
        </mxCell>
        <mxCell id="vZ06RPUVE-HRvh0mER_O-13" value="" style="shape=partialRectangle;connectable=0;fillColor=none;top=0;left=0;bottom=0;right=0;editable=1;overflow=hidden;" parent="vZ06RPUVE-HRvh0mER_O-12" vertex="1">
          <mxGeometry width="27" height="20" as="geometry">
            <mxRectangle width="27" height="20" as="alternateBounds" />
          </mxGeometry>
        </mxCell>
        <mxCell id="vZ06RPUVE-HRvh0mER_O-14" value="" style="shape=partialRectangle;connectable=0;fillColor=none;top=0;left=0;bottom=0;right=0;align=left;spacingLeft=6;overflow=hidden;" parent="vZ06RPUVE-HRvh0mER_O-12" vertex="1">
          <mxGeometry x="27" width="117" height="20" as="geometry">
            <mxRectangle width="117" height="20" as="alternateBounds" />
          </mxGeometry>
        </mxCell>
        <mxCell id="vZ06RPUVE-HRvh0mER_O-15" value="Doctors_Spec" style="shape=table;startSize=30;container=1;collapsible=1;childLayout=tableLayout;fixedRows=0;rowLines=0;fontStyle=1;align=center;resizeLast=0;strokeWidth=1;perimeterSpacing=1;shadow=0;rounded=0;aspect=fixed;columnLines=1;" parent="1" vertex="1">
          <mxGeometry x="640" y="640" width="143.99" height="123" as="geometry" />
        </mxCell>
        <mxCell id="vZ06RPUVE-HRvh0mER_O-16" value="" style="shape=tableRow;horizontal=0;startSize=0;swimlaneHead=0;swimlaneBody=0;fillColor=none;collapsible=0;dropTarget=0;points=[[0,0.5],[1,0.5]];portConstraint=eastwest;top=0;left=0;right=0;bottom=0;" parent="vZ06RPUVE-HRvh0mER_O-15" vertex="1">
          <mxGeometry y="30" width="143.99" height="27" as="geometry" />
        </mxCell>
        <mxCell id="vZ06RPUVE-HRvh0mER_O-17" value="" style="shape=partialRectangle;connectable=0;fillColor=none;top=0;left=0;bottom=0;right=0;editable=1;overflow=hidden;" parent="vZ06RPUVE-HRvh0mER_O-16" vertex="1">
          <mxGeometry width="27" height="27" as="geometry">
            <mxRectangle width="27" height="27" as="alternateBounds" />
          </mxGeometry>
        </mxCell>
        <mxCell id="vZ06RPUVE-HRvh0mER_O-18" value="id_doctor" style="shape=partialRectangle;connectable=0;fillColor=none;top=0;left=0;bottom=0;right=0;align=left;spacingLeft=6;overflow=hidden;" parent="vZ06RPUVE-HRvh0mER_O-16" vertex="1">
          <mxGeometry x="27" width="117" height="27" as="geometry">
            <mxRectangle width="117" height="27" as="alternateBounds" />
          </mxGeometry>
        </mxCell>
        <mxCell id="vZ06RPUVE-HRvh0mER_O-19" value="" style="shape=tableRow;horizontal=0;startSize=0;swimlaneHead=0;swimlaneBody=0;fillColor=none;collapsible=0;dropTarget=0;points=[[0,0.5],[1,0.5]];portConstraint=eastwest;top=0;left=0;right=0;bottom=0;" parent="vZ06RPUVE-HRvh0mER_O-15" vertex="1">
          <mxGeometry y="57" width="143.99" height="29" as="geometry" />
        </mxCell>
        <mxCell id="vZ06RPUVE-HRvh0mER_O-20" value="" style="shape=partialRectangle;connectable=0;fillColor=none;top=0;left=0;bottom=0;right=0;editable=1;overflow=hidden;" parent="vZ06RPUVE-HRvh0mER_O-19" vertex="1">
          <mxGeometry width="27" height="29" as="geometry">
            <mxRectangle width="27" height="29" as="alternateBounds" />
          </mxGeometry>
        </mxCell>
        <mxCell id="vZ06RPUVE-HRvh0mER_O-21" value="id_spec" style="shape=partialRectangle;connectable=0;fillColor=none;top=0;left=0;bottom=0;right=0;align=left;spacingLeft=6;overflow=hidden;" parent="vZ06RPUVE-HRvh0mER_O-19" vertex="1">
          <mxGeometry x="27" width="117" height="29" as="geometry">
            <mxRectangle width="117" height="29" as="alternateBounds" />
          </mxGeometry>
        </mxCell>
        <mxCell id="vZ06RPUVE-HRvh0mER_O-22" value="" style="shape=tableRow;horizontal=0;startSize=0;swimlaneHead=0;swimlaneBody=0;fillColor=none;collapsible=0;dropTarget=0;points=[[0,0.5],[1,0.5]];portConstraint=eastwest;top=0;left=0;right=0;bottom=0;" parent="vZ06RPUVE-HRvh0mER_O-15" vertex="1">
          <mxGeometry y="86" width="143.99" height="17" as="geometry" />
        </mxCell>
        <mxCell id="vZ06RPUVE-HRvh0mER_O-23" value="" style="shape=partialRectangle;connectable=0;fillColor=none;top=0;left=0;bottom=0;right=0;editable=1;overflow=hidden;" parent="vZ06RPUVE-HRvh0mER_O-22" vertex="1">
          <mxGeometry width="27" height="17" as="geometry">
            <mxRectangle width="27" height="17" as="alternateBounds" />
          </mxGeometry>
        </mxCell>
        <mxCell id="vZ06RPUVE-HRvh0mER_O-24" value="" style="shape=partialRectangle;connectable=0;fillColor=none;top=0;left=0;bottom=0;right=0;align=left;spacingLeft=6;overflow=hidden;" parent="vZ06RPUVE-HRvh0mER_O-22" vertex="1">
          <mxGeometry x="27" width="117" height="17" as="geometry">
            <mxRectangle width="117" height="17" as="alternateBounds" />
          </mxGeometry>
        </mxCell>
        <mxCell id="vZ06RPUVE-HRvh0mER_O-25" value="" style="shape=tableRow;horizontal=0;startSize=0;swimlaneHead=0;swimlaneBody=0;fillColor=none;collapsible=0;dropTarget=0;points=[[0,0.5],[1,0.5]];portConstraint=eastwest;top=0;left=0;right=0;bottom=0;" parent="vZ06RPUVE-HRvh0mER_O-15" vertex="1">
          <mxGeometry y="103" width="143.99" height="20" as="geometry" />
        </mxCell>
        <mxCell id="vZ06RPUVE-HRvh0mER_O-26" value="" style="shape=partialRectangle;connectable=0;fillColor=none;top=0;left=0;bottom=0;right=0;editable=1;overflow=hidden;" parent="vZ06RPUVE-HRvh0mER_O-25" vertex="1">
          <mxGeometry width="27" height="20" as="geometry">
            <mxRectangle width="27" height="20" as="alternateBounds" />
          </mxGeometry>
        </mxCell>
        <mxCell id="vZ06RPUVE-HRvh0mER_O-27" value="" style="shape=partialRectangle;connectable=0;fillColor=none;top=0;left=0;bottom=0;right=0;align=left;spacingLeft=6;overflow=hidden;" parent="vZ06RPUVE-HRvh0mER_O-25" vertex="1">
          <mxGeometry x="27" width="117" height="20" as="geometry">
            <mxRectangle width="117" height="20" as="alternateBounds" />
          </mxGeometry>
        </mxCell>
        <mxCell id="vZ06RPUVE-HRvh0mER_O-28" value="" style="edgeStyle=entityRelationEdgeStyle;fontSize=12;html=1;endArrow=ERoneToMany;rounded=0;entryX=0;entryY=0.5;entryDx=0;entryDy=0;exitX=1;exitY=0.5;exitDx=0;exitDy=0;" parent="1" source="vZ06RPUVE-HRvh0mER_O-6" target="vZ06RPUVE-HRvh0mER_O-19" edge="1">
          <mxGeometry width="100" height="100" relative="1" as="geometry">
            <mxPoint x="610" y="898" as="sourcePoint" />
            <mxPoint x="750" y="708" as="targetPoint" />
          </mxGeometry>
        </mxCell>
        <mxCell id="vZ06RPUVE-HRvh0mER_O-30" value="" style="edgeStyle=entityRelationEdgeStyle;fontSize=12;html=1;endArrow=ERmany;startArrow=ERmany;rounded=0;entryX=0;entryY=0.5;entryDx=0;entryDy=0;exitX=1;exitY=0.5;exitDx=0;exitDy=0;" parent="1" source="7-1CVHjXULgkSqzOs4-w-6" target="U3F9iakPl_cf1ObfdUDb-28" edge="1">
          <mxGeometry width="100" height="100" relative="1" as="geometry">
            <mxPoint x="250" y="495" as="sourcePoint" />
            <mxPoint x="330" y="639" as="targetPoint" />
          </mxGeometry>
        </mxCell>
        <mxCell id="vZ06RPUVE-HRvh0mER_O-59" value="Purpose_of_the_visit" style="shape=table;startSize=30;container=1;collapsible=1;childLayout=tableLayout;fixedRows=0;rowLines=0;fontStyle=1;align=center;resizeLast=0;strokeWidth=1;perimeterSpacing=1;shadow=0;rounded=0;aspect=fixed;columnLines=1;" parent="1" vertex="1">
          <mxGeometry x="1060" y="660" width="143.99" height="123" as="geometry" />
        </mxCell>
        <mxCell id="vZ06RPUVE-HRvh0mER_O-60" value="" style="shape=tableRow;horizontal=0;startSize=0;swimlaneHead=0;swimlaneBody=0;fillColor=none;collapsible=0;dropTarget=0;points=[[0,0.5],[1,0.5]];portConstraint=eastwest;top=0;left=0;right=0;bottom=0;" parent="vZ06RPUVE-HRvh0mER_O-59" vertex="1">
          <mxGeometry y="30" width="143.99" height="27" as="geometry" />
        </mxCell>
        <mxCell id="vZ06RPUVE-HRvh0mER_O-61" value="" style="shape=partialRectangle;connectable=0;fillColor=none;top=0;left=0;bottom=0;right=0;editable=1;overflow=hidden;" parent="vZ06RPUVE-HRvh0mER_O-60" vertex="1">
          <mxGeometry width="27" height="27" as="geometry">
            <mxRectangle width="27" height="27" as="alternateBounds" />
          </mxGeometry>
        </mxCell>
        <mxCell id="vZ06RPUVE-HRvh0mER_O-62" value="id_purpose" style="shape=partialRectangle;connectable=0;fillColor=none;top=0;left=0;bottom=0;right=0;align=left;spacingLeft=6;overflow=hidden;" parent="vZ06RPUVE-HRvh0mER_O-60" vertex="1">
          <mxGeometry x="27" width="117" height="27" as="geometry">
            <mxRectangle width="117" height="27" as="alternateBounds" />
          </mxGeometry>
        </mxCell>
        <mxCell id="vZ06RPUVE-HRvh0mER_O-63" value="" style="shape=tableRow;horizontal=0;startSize=0;swimlaneHead=0;swimlaneBody=0;fillColor=none;collapsible=0;dropTarget=0;points=[[0,0.5],[1,0.5]];portConstraint=eastwest;top=0;left=0;right=0;bottom=0;" parent="vZ06RPUVE-HRvh0mER_O-59" vertex="1">
          <mxGeometry y="57" width="143.99" height="29" as="geometry" />
        </mxCell>
        <mxCell id="vZ06RPUVE-HRvh0mER_O-64" value="" style="shape=partialRectangle;connectable=0;fillColor=none;top=0;left=0;bottom=0;right=0;editable=1;overflow=hidden;" parent="vZ06RPUVE-HRvh0mER_O-63" vertex="1">
          <mxGeometry width="27" height="29" as="geometry">
            <mxRectangle width="27" height="29" as="alternateBounds" />
          </mxGeometry>
        </mxCell>
        <mxCell id="vZ06RPUVE-HRvh0mER_O-65" value="iname" style="shape=partialRectangle;connectable=0;fillColor=none;top=0;left=0;bottom=0;right=0;align=left;spacingLeft=6;overflow=hidden;" parent="vZ06RPUVE-HRvh0mER_O-63" vertex="1">
          <mxGeometry x="27" width="117" height="29" as="geometry">
            <mxRectangle width="117" height="29" as="alternateBounds" />
          </mxGeometry>
        </mxCell>
        <mxCell id="vZ06RPUVE-HRvh0mER_O-66" value="" style="shape=tableRow;horizontal=0;startSize=0;swimlaneHead=0;swimlaneBody=0;fillColor=none;collapsible=0;dropTarget=0;points=[[0,0.5],[1,0.5]];portConstraint=eastwest;top=0;left=0;right=0;bottom=0;" parent="vZ06RPUVE-HRvh0mER_O-59" vertex="1">
          <mxGeometry y="86" width="143.99" height="17" as="geometry" />
        </mxCell>
        <mxCell id="vZ06RPUVE-HRvh0mER_O-67" value="" style="shape=partialRectangle;connectable=0;fillColor=none;top=0;left=0;bottom=0;right=0;editable=1;overflow=hidden;" parent="vZ06RPUVE-HRvh0mER_O-66" vertex="1">
          <mxGeometry width="27" height="17" as="geometry">
            <mxRectangle width="27" height="17" as="alternateBounds" />
          </mxGeometry>
        </mxCell>
        <mxCell id="vZ06RPUVE-HRvh0mER_O-68" value="" style="shape=partialRectangle;connectable=0;fillColor=none;top=0;left=0;bottom=0;right=0;align=left;spacingLeft=6;overflow=hidden;" parent="vZ06RPUVE-HRvh0mER_O-66" vertex="1">
          <mxGeometry x="27" width="117" height="17" as="geometry">
            <mxRectangle width="117" height="17" as="alternateBounds" />
          </mxGeometry>
        </mxCell>
        <mxCell id="vZ06RPUVE-HRvh0mER_O-69" value="" style="shape=tableRow;horizontal=0;startSize=0;swimlaneHead=0;swimlaneBody=0;fillColor=none;collapsible=0;dropTarget=0;points=[[0,0.5],[1,0.5]];portConstraint=eastwest;top=0;left=0;right=0;bottom=0;" parent="vZ06RPUVE-HRvh0mER_O-59" vertex="1">
          <mxGeometry y="103" width="143.99" height="20" as="geometry" />
        </mxCell>
        <mxCell id="vZ06RPUVE-HRvh0mER_O-70" value="" style="shape=partialRectangle;connectable=0;fillColor=none;top=0;left=0;bottom=0;right=0;editable=1;overflow=hidden;" parent="vZ06RPUVE-HRvh0mER_O-69" vertex="1">
          <mxGeometry width="27" height="20" as="geometry">
            <mxRectangle width="27" height="20" as="alternateBounds" />
          </mxGeometry>
        </mxCell>
        <mxCell id="vZ06RPUVE-HRvh0mER_O-71" value="" style="shape=partialRectangle;connectable=0;fillColor=none;top=0;left=0;bottom=0;right=0;align=left;spacingLeft=6;overflow=hidden;" parent="vZ06RPUVE-HRvh0mER_O-69" vertex="1">
          <mxGeometry x="27" width="117" height="20" as="geometry">
            <mxRectangle width="117" height="20" as="alternateBounds" />
          </mxGeometry>
        </mxCell>
        <mxCell id="vZ06RPUVE-HRvh0mER_O-72" value="Visit_purpose" style="shape=table;startSize=30;container=1;collapsible=1;childLayout=tableLayout;fixedRows=0;rowLines=0;fontStyle=1;align=center;resizeLast=0;strokeWidth=1;perimeterSpacing=1;shadow=0;rounded=0;aspect=fixed;columnLines=1;" parent="1" vertex="1">
          <mxGeometry x="870" y="523" width="143.99" height="123" as="geometry" />
        </mxCell>
        <mxCell id="vZ06RPUVE-HRvh0mER_O-73" value="" style="shape=tableRow;horizontal=0;startSize=0;swimlaneHead=0;swimlaneBody=0;fillColor=none;collapsible=0;dropTarget=0;points=[[0,0.5],[1,0.5]];portConstraint=eastwest;top=0;left=0;right=0;bottom=0;" parent="vZ06RPUVE-HRvh0mER_O-72" vertex="1">
          <mxGeometry y="30" width="143.99" height="27" as="geometry" />
        </mxCell>
        <mxCell id="vZ06RPUVE-HRvh0mER_O-74" value="" style="shape=partialRectangle;connectable=0;fillColor=none;top=0;left=0;bottom=0;right=0;editable=1;overflow=hidden;" parent="vZ06RPUVE-HRvh0mER_O-73" vertex="1">
          <mxGeometry width="27" height="27" as="geometry">
            <mxRectangle width="27" height="27" as="alternateBounds" />
          </mxGeometry>
        </mxCell>
        <mxCell id="vZ06RPUVE-HRvh0mER_O-75" value="id_purpose" style="shape=partialRectangle;connectable=0;fillColor=none;top=0;left=0;bottom=0;right=0;align=left;spacingLeft=6;overflow=hidden;" parent="vZ06RPUVE-HRvh0mER_O-73" vertex="1">
          <mxGeometry x="27" width="117" height="27" as="geometry">
            <mxRectangle width="117" height="27" as="alternateBounds" />
          </mxGeometry>
        </mxCell>
        <mxCell id="vZ06RPUVE-HRvh0mER_O-76" value="" style="shape=tableRow;horizontal=0;startSize=0;swimlaneHead=0;swimlaneBody=0;fillColor=none;collapsible=0;dropTarget=0;points=[[0,0.5],[1,0.5]];portConstraint=eastwest;top=0;left=0;right=0;bottom=0;" parent="vZ06RPUVE-HRvh0mER_O-72" vertex="1">
          <mxGeometry y="57" width="143.99" height="29" as="geometry" />
        </mxCell>
        <mxCell id="vZ06RPUVE-HRvh0mER_O-77" value="" style="shape=partialRectangle;connectable=0;fillColor=none;top=0;left=0;bottom=0;right=0;editable=1;overflow=hidden;" parent="vZ06RPUVE-HRvh0mER_O-76" vertex="1">
          <mxGeometry width="27" height="29" as="geometry">
            <mxRectangle width="27" height="29" as="alternateBounds" />
          </mxGeometry>
        </mxCell>
        <mxCell id="vZ06RPUVE-HRvh0mER_O-78" value="id_visit" style="shape=partialRectangle;connectable=0;fillColor=none;top=0;left=0;bottom=0;right=0;align=left;spacingLeft=6;overflow=hidden;" parent="vZ06RPUVE-HRvh0mER_O-76" vertex="1">
          <mxGeometry x="27" width="117" height="29" as="geometry">
            <mxRectangle width="117" height="29" as="alternateBounds" />
          </mxGeometry>
        </mxCell>
        <mxCell id="vZ06RPUVE-HRvh0mER_O-79" value="" style="shape=tableRow;horizontal=0;startSize=0;swimlaneHead=0;swimlaneBody=0;fillColor=none;collapsible=0;dropTarget=0;points=[[0,0.5],[1,0.5]];portConstraint=eastwest;top=0;left=0;right=0;bottom=0;" parent="vZ06RPUVE-HRvh0mER_O-72" vertex="1">
          <mxGeometry y="86" width="143.99" height="17" as="geometry" />
        </mxCell>
        <mxCell id="vZ06RPUVE-HRvh0mER_O-80" value="" style="shape=partialRectangle;connectable=0;fillColor=none;top=0;left=0;bottom=0;right=0;editable=1;overflow=hidden;" parent="vZ06RPUVE-HRvh0mER_O-79" vertex="1">
          <mxGeometry width="27" height="17" as="geometry">
            <mxRectangle width="27" height="17" as="alternateBounds" />
          </mxGeometry>
        </mxCell>
        <mxCell id="vZ06RPUVE-HRvh0mER_O-81" value="" style="shape=partialRectangle;connectable=0;fillColor=none;top=0;left=0;bottom=0;right=0;align=left;spacingLeft=6;overflow=hidden;" parent="vZ06RPUVE-HRvh0mER_O-79" vertex="1">
          <mxGeometry x="27" width="117" height="17" as="geometry">
            <mxRectangle width="117" height="17" as="alternateBounds" />
          </mxGeometry>
        </mxCell>
        <mxCell id="vZ06RPUVE-HRvh0mER_O-82" value="" style="shape=tableRow;horizontal=0;startSize=0;swimlaneHead=0;swimlaneBody=0;fillColor=none;collapsible=0;dropTarget=0;points=[[0,0.5],[1,0.5]];portConstraint=eastwest;top=0;left=0;right=0;bottom=0;" parent="vZ06RPUVE-HRvh0mER_O-72" vertex="1">
          <mxGeometry y="103" width="143.99" height="20" as="geometry" />
        </mxCell>
        <mxCell id="vZ06RPUVE-HRvh0mER_O-83" value="" style="shape=partialRectangle;connectable=0;fillColor=none;top=0;left=0;bottom=0;right=0;editable=1;overflow=hidden;" parent="vZ06RPUVE-HRvh0mER_O-82" vertex="1">
          <mxGeometry width="27" height="20" as="geometry">
            <mxRectangle width="27" height="20" as="alternateBounds" />
          </mxGeometry>
        </mxCell>
        <mxCell id="vZ06RPUVE-HRvh0mER_O-84" value="" style="shape=partialRectangle;connectable=0;fillColor=none;top=0;left=0;bottom=0;right=0;align=left;spacingLeft=6;overflow=hidden;" parent="vZ06RPUVE-HRvh0mER_O-82" vertex="1">
          <mxGeometry x="27" width="117" height="20" as="geometry">
            <mxRectangle width="117" height="20" as="alternateBounds" />
          </mxGeometry>
        </mxCell>
        <mxCell id="vZ06RPUVE-HRvh0mER_O-85" value="" style="edgeStyle=entityRelationEdgeStyle;fontSize=12;html=1;endArrow=ERoneToMany;rounded=0;entryX=1;entryY=0.5;entryDx=0;entryDy=0;exitX=0;exitY=0.5;exitDx=0;exitDy=0;" parent="1" source="vZ06RPUVE-HRvh0mER_O-60" target="vZ06RPUVE-HRvh0mER_O-76" edge="1">
          <mxGeometry width="100" height="100" relative="1" as="geometry">
            <mxPoint x="1050" y="800" as="sourcePoint" />
            <mxPoint x="1105" y="690" as="targetPoint" />
          </mxGeometry>
        </mxCell>
        <mxCell id="vZ06RPUVE-HRvh0mER_O-86" value="" style="edgeStyle=entityRelationEdgeStyle;fontSize=12;html=1;endArrow=ERmany;startArrow=ERmany;rounded=0;entryX=0;entryY=0.5;entryDx=0;entryDy=0;exitX=1;exitY=0.5;exitDx=0;exitDy=0;" parent="1" source="U3F9iakPl_cf1ObfdUDb-15" target="vZ06RPUVE-HRvh0mER_O-76" edge="1">
          <mxGeometry width="100" height="100" relative="1" as="geometry">
            <mxPoint x="883.99" y="400" as="sourcePoint" />
            <mxPoint x="983.99" y="549" as="targetPoint" />
          </mxGeometry>
        </mxCell>
        <mxCell id="vZ06RPUVE-HRvh0mER_O-87" value="Diagnosis" style="shape=table;startSize=30;container=1;collapsible=1;childLayout=tableLayout;fixedRows=0;rowLines=0;fontStyle=1;align=center;resizeLast=0;strokeWidth=1;perimeterSpacing=1;shadow=0;rounded=0;aspect=fixed;columnLines=1;" parent="1" vertex="1">
          <mxGeometry x="1120" y="403" width="143.99" height="123" as="geometry" />
        </mxCell>
        <mxCell id="vZ06RPUVE-HRvh0mER_O-88" value="" style="shape=tableRow;horizontal=0;startSize=0;swimlaneHead=0;swimlaneBody=0;fillColor=none;collapsible=0;dropTarget=0;points=[[0,0.5],[1,0.5]];portConstraint=eastwest;top=0;left=0;right=0;bottom=0;" parent="vZ06RPUVE-HRvh0mER_O-87" vertex="1">
          <mxGeometry y="30" width="143.99" height="27" as="geometry" />
        </mxCell>
        <mxCell id="vZ06RPUVE-HRvh0mER_O-89" value="" style="shape=partialRectangle;connectable=0;fillColor=none;top=0;left=0;bottom=0;right=0;editable=1;overflow=hidden;" parent="vZ06RPUVE-HRvh0mER_O-88" vertex="1">
          <mxGeometry width="27" height="27" as="geometry">
            <mxRectangle width="27" height="27" as="alternateBounds" />
          </mxGeometry>
        </mxCell>
        <mxCell id="vZ06RPUVE-HRvh0mER_O-90" value="id_diagnosis" style="shape=partialRectangle;connectable=0;fillColor=none;top=0;left=0;bottom=0;right=0;align=left;spacingLeft=6;overflow=hidden;" parent="vZ06RPUVE-HRvh0mER_O-88" vertex="1">
          <mxGeometry x="27" width="117" height="27" as="geometry">
            <mxRectangle width="117" height="27" as="alternateBounds" />
          </mxGeometry>
        </mxCell>
        <mxCell id="vZ06RPUVE-HRvh0mER_O-91" value="" style="shape=tableRow;horizontal=0;startSize=0;swimlaneHead=0;swimlaneBody=0;fillColor=none;collapsible=0;dropTarget=0;points=[[0,0.5],[1,0.5]];portConstraint=eastwest;top=0;left=0;right=0;bottom=0;" parent="vZ06RPUVE-HRvh0mER_O-87" vertex="1">
          <mxGeometry y="57" width="143.99" height="29" as="geometry" />
        </mxCell>
        <mxCell id="vZ06RPUVE-HRvh0mER_O-92" value="" style="shape=partialRectangle;connectable=0;fillColor=none;top=0;left=0;bottom=0;right=0;editable=1;overflow=hidden;" parent="vZ06RPUVE-HRvh0mER_O-91" vertex="1">
          <mxGeometry width="27" height="29" as="geometry">
            <mxRectangle width="27" height="29" as="alternateBounds" />
          </mxGeometry>
        </mxCell>
        <mxCell id="vZ06RPUVE-HRvh0mER_O-93" value="name" style="shape=partialRectangle;connectable=0;fillColor=none;top=0;left=0;bottom=0;right=0;align=left;spacingLeft=6;overflow=hidden;" parent="vZ06RPUVE-HRvh0mER_O-91" vertex="1">
          <mxGeometry x="27" width="117" height="29" as="geometry">
            <mxRectangle width="117" height="29" as="alternateBounds" />
          </mxGeometry>
        </mxCell>
        <mxCell id="vZ06RPUVE-HRvh0mER_O-94" value="" style="shape=tableRow;horizontal=0;startSize=0;swimlaneHead=0;swimlaneBody=0;fillColor=none;collapsible=0;dropTarget=0;points=[[0,0.5],[1,0.5]];portConstraint=eastwest;top=0;left=0;right=0;bottom=0;" parent="vZ06RPUVE-HRvh0mER_O-87" vertex="1">
          <mxGeometry y="86" width="143.99" height="17" as="geometry" />
        </mxCell>
        <mxCell id="vZ06RPUVE-HRvh0mER_O-95" value="" style="shape=partialRectangle;connectable=0;fillColor=none;top=0;left=0;bottom=0;right=0;editable=1;overflow=hidden;" parent="vZ06RPUVE-HRvh0mER_O-94" vertex="1">
          <mxGeometry width="27" height="17" as="geometry">
            <mxRectangle width="27" height="17" as="alternateBounds" />
          </mxGeometry>
        </mxCell>
        <mxCell id="vZ06RPUVE-HRvh0mER_O-96" value="" style="shape=partialRectangle;connectable=0;fillColor=none;top=0;left=0;bottom=0;right=0;align=left;spacingLeft=6;overflow=hidden;" parent="vZ06RPUVE-HRvh0mER_O-94" vertex="1">
          <mxGeometry x="27" width="117" height="17" as="geometry">
            <mxRectangle width="117" height="17" as="alternateBounds" />
          </mxGeometry>
        </mxCell>
        <mxCell id="vZ06RPUVE-HRvh0mER_O-97" value="" style="shape=tableRow;horizontal=0;startSize=0;swimlaneHead=0;swimlaneBody=0;fillColor=none;collapsible=0;dropTarget=0;points=[[0,0.5],[1,0.5]];portConstraint=eastwest;top=0;left=0;right=0;bottom=0;" parent="vZ06RPUVE-HRvh0mER_O-87" vertex="1">
          <mxGeometry y="103" width="143.99" height="20" as="geometry" />
        </mxCell>
        <mxCell id="vZ06RPUVE-HRvh0mER_O-98" value="" style="shape=partialRectangle;connectable=0;fillColor=none;top=0;left=0;bottom=0;right=0;editable=1;overflow=hidden;" parent="vZ06RPUVE-HRvh0mER_O-97" vertex="1">
          <mxGeometry width="27" height="20" as="geometry">
            <mxRectangle width="27" height="20" as="alternateBounds" />
          </mxGeometry>
        </mxCell>
        <mxCell id="vZ06RPUVE-HRvh0mER_O-99" value="" style="shape=partialRectangle;connectable=0;fillColor=none;top=0;left=0;bottom=0;right=0;align=left;spacingLeft=6;overflow=hidden;" parent="vZ06RPUVE-HRvh0mER_O-97" vertex="1">
          <mxGeometry x="27" width="117" height="20" as="geometry">
            <mxRectangle width="117" height="20" as="alternateBounds" />
          </mxGeometry>
        </mxCell>
        <mxCell id="vZ06RPUVE-HRvh0mER_O-100" value="Diagnosis_visit" style="shape=table;startSize=30;container=1;collapsible=1;childLayout=tableLayout;fixedRows=0;rowLines=0;fontStyle=1;align=center;resizeLast=0;strokeWidth=1;perimeterSpacing=1;shadow=0;rounded=0;aspect=fixed;columnLines=1;" parent="1" vertex="1">
          <mxGeometry x="889.5" y="308.5" width="143.99" height="123" as="geometry" />
        </mxCell>
        <mxCell id="vZ06RPUVE-HRvh0mER_O-101" value="" style="shape=tableRow;horizontal=0;startSize=0;swimlaneHead=0;swimlaneBody=0;fillColor=none;collapsible=0;dropTarget=0;points=[[0,0.5],[1,0.5]];portConstraint=eastwest;top=0;left=0;right=0;bottom=0;" parent="vZ06RPUVE-HRvh0mER_O-100" vertex="1">
          <mxGeometry y="30" width="143.99" height="27" as="geometry" />
        </mxCell>
        <mxCell id="vZ06RPUVE-HRvh0mER_O-102" value="" style="shape=partialRectangle;connectable=0;fillColor=none;top=0;left=0;bottom=0;right=0;editable=1;overflow=hidden;" parent="vZ06RPUVE-HRvh0mER_O-101" vertex="1">
          <mxGeometry width="27" height="27" as="geometry">
            <mxRectangle width="27" height="27" as="alternateBounds" />
          </mxGeometry>
        </mxCell>
        <mxCell id="vZ06RPUVE-HRvh0mER_O-103" value="id_diagnosis" style="shape=partialRectangle;connectable=0;fillColor=none;top=0;left=0;bottom=0;right=0;align=left;spacingLeft=6;overflow=hidden;" parent="vZ06RPUVE-HRvh0mER_O-101" vertex="1">
          <mxGeometry x="27" width="117" height="27" as="geometry">
            <mxRectangle width="117" height="27" as="alternateBounds" />
          </mxGeometry>
        </mxCell>
        <mxCell id="vZ06RPUVE-HRvh0mER_O-104" value="" style="shape=tableRow;horizontal=0;startSize=0;swimlaneHead=0;swimlaneBody=0;fillColor=none;collapsible=0;dropTarget=0;points=[[0,0.5],[1,0.5]];portConstraint=eastwest;top=0;left=0;right=0;bottom=0;" parent="vZ06RPUVE-HRvh0mER_O-100" vertex="1">
          <mxGeometry y="57" width="143.99" height="29" as="geometry" />
        </mxCell>
        <mxCell id="vZ06RPUVE-HRvh0mER_O-105" value="" style="shape=partialRectangle;connectable=0;fillColor=none;top=0;left=0;bottom=0;right=0;editable=1;overflow=hidden;" parent="vZ06RPUVE-HRvh0mER_O-104" vertex="1">
          <mxGeometry width="27" height="29" as="geometry">
            <mxRectangle width="27" height="29" as="alternateBounds" />
          </mxGeometry>
        </mxCell>
        <mxCell id="vZ06RPUVE-HRvh0mER_O-106" value="id_visit" style="shape=partialRectangle;connectable=0;fillColor=none;top=0;left=0;bottom=0;right=0;align=left;spacingLeft=6;overflow=hidden;" parent="vZ06RPUVE-HRvh0mER_O-104" vertex="1">
          <mxGeometry x="27" width="117" height="29" as="geometry">
            <mxRectangle width="117" height="29" as="alternateBounds" />
          </mxGeometry>
        </mxCell>
        <mxCell id="vZ06RPUVE-HRvh0mER_O-107" value="" style="shape=tableRow;horizontal=0;startSize=0;swimlaneHead=0;swimlaneBody=0;fillColor=none;collapsible=0;dropTarget=0;points=[[0,0.5],[1,0.5]];portConstraint=eastwest;top=0;left=0;right=0;bottom=0;" parent="vZ06RPUVE-HRvh0mER_O-100" vertex="1">
          <mxGeometry y="86" width="143.99" height="17" as="geometry" />
        </mxCell>
        <mxCell id="vZ06RPUVE-HRvh0mER_O-108" value="" style="shape=partialRectangle;connectable=0;fillColor=none;top=0;left=0;bottom=0;right=0;editable=1;overflow=hidden;" parent="vZ06RPUVE-HRvh0mER_O-107" vertex="1">
          <mxGeometry width="27" height="17" as="geometry">
            <mxRectangle width="27" height="17" as="alternateBounds" />
          </mxGeometry>
        </mxCell>
        <mxCell id="vZ06RPUVE-HRvh0mER_O-109" value="" style="shape=partialRectangle;connectable=0;fillColor=none;top=0;left=0;bottom=0;right=0;align=left;spacingLeft=6;overflow=hidden;" parent="vZ06RPUVE-HRvh0mER_O-107" vertex="1">
          <mxGeometry x="27" width="117" height="17" as="geometry">
            <mxRectangle width="117" height="17" as="alternateBounds" />
          </mxGeometry>
        </mxCell>
        <mxCell id="vZ06RPUVE-HRvh0mER_O-110" value="" style="shape=tableRow;horizontal=0;startSize=0;swimlaneHead=0;swimlaneBody=0;fillColor=none;collapsible=0;dropTarget=0;points=[[0,0.5],[1,0.5]];portConstraint=eastwest;top=0;left=0;right=0;bottom=0;" parent="vZ06RPUVE-HRvh0mER_O-100" vertex="1">
          <mxGeometry y="103" width="143.99" height="20" as="geometry" />
        </mxCell>
        <mxCell id="vZ06RPUVE-HRvh0mER_O-111" value="" style="shape=partialRectangle;connectable=0;fillColor=none;top=0;left=0;bottom=0;right=0;editable=1;overflow=hidden;" parent="vZ06RPUVE-HRvh0mER_O-110" vertex="1">
          <mxGeometry width="27" height="20" as="geometry">
            <mxRectangle width="27" height="20" as="alternateBounds" />
          </mxGeometry>
        </mxCell>
        <mxCell id="vZ06RPUVE-HRvh0mER_O-112" value="" style="shape=partialRectangle;connectable=0;fillColor=none;top=0;left=0;bottom=0;right=0;align=left;spacingLeft=6;overflow=hidden;" parent="vZ06RPUVE-HRvh0mER_O-110" vertex="1">
          <mxGeometry x="27" width="117" height="20" as="geometry">
            <mxRectangle width="117" height="20" as="alternateBounds" />
          </mxGeometry>
        </mxCell>
        <mxCell id="vZ06RPUVE-HRvh0mER_O-113" value="" style="edgeStyle=entityRelationEdgeStyle;fontSize=12;html=1;endArrow=ERoneToMany;rounded=0;entryX=1;entryY=0.5;entryDx=0;entryDy=0;exitX=0;exitY=0.5;exitDx=0;exitDy=0;" parent="1" source="vZ06RPUVE-HRvh0mER_O-88" target="vZ06RPUVE-HRvh0mER_O-101" edge="1">
          <mxGeometry width="100" height="100" relative="1" as="geometry">
            <mxPoint x="1120" y="430" as="sourcePoint" />
            <mxPoint x="1044" y="503" as="targetPoint" />
          </mxGeometry>
        </mxCell>
        <mxCell id="vZ06RPUVE-HRvh0mER_O-114" value="" style="edgeStyle=entityRelationEdgeStyle;fontSize=12;html=1;endArrow=ERmany;startArrow=ERmany;rounded=0;entryX=0;entryY=0.5;entryDx=0;entryDy=0;" parent="1" target="vZ06RPUVE-HRvh0mER_O-104" edge="1">
          <mxGeometry width="100" height="100" relative="1" as="geometry">
            <mxPoint x="790" y="290" as="sourcePoint" />
            <mxPoint x="880" y="605" as="targetPoint" />
          </mxGeometry>
        </mxCell>
      </root>
    </mxGraphModel>
  </diagram>
</mxfile>
